# xmcd
#
# Track frame offsets: 
#        150
#        4741
#        31791
#        62540
#        85610
#        87233
#        107098
#        131450
#        150358
#        180080
#        208629
#        235195
#        259087
#        276304
#        302205
#
# Disc length: 4219 seconds
#
# Revision: 1
# Processed by: cddbd v1.5.1PL2 Copyright (c) Steve Scherf et al.
# Submitted via: ExactAudioCopy v0.95a5
#
DISCID=b010790f
DTITLE=JUNIO - 
DYEAR=1900
DGENRE=
TTITLE0=INTRO
TTITLE1=
TTITLE2=DA HYPE
TTITLE3=STUPIDISCO
TTITLE4=FUCK THE SYSTEM
TTITLE5=THE ROOTS
TTITLE6=ALONE
TTITLE7=HOLA
TTITLE8=E SAMBA
TTITLE9=LUV 2 U
TTITLE10=THRILL ME
TTITLE11=DEPRESSION
TTITLE12=DO IT
TTITLE13=MUST BE THE DARKNESS
TTITLE14=DA HYPE Feat. ROBERT SMITH
EXTD=
EXTT0=
EXTT1=
EXTT2=
EXTT3=
EXTT4=
EXTT5=
EXTT6=
EXTT7=
EXTT8=
EXTT9=
EXTT10=
EXTT11=
EXTT12=
EXTT13=
EXTT14=
PLAYORDER=
